<?xml version="1.0" encoding="UTF-8"?>
<svg width="240" height="213.33" version="1.1" viewBox="0 0 240 213.33" xmlns="http://www.w3.org/2000/svg" xmlns:cc="http://creativecommons.org/ns#" xmlns:dc="http://purl.org/dc/elements/1.1/" xmlns:rdf="http://www.w3.org/1999/02/22-rdf-syntax-ns#">
 <metadata>
  <rdf:RDF>
   <cc:Work rdf:about="">
    <dc:format>image/svg+xml</dc:format>
    <dc:type rdf:resource="http://purl.org/dc/dcmitype/StillImage"/>
    <dc:title/>
   </cc:Work>
  </rdf:RDF>
 </metadata>
 <g transform="translate(-177.85 -81.809)">
  <path d="m193.23 292.53c-1.5085-1.6669-2.0814-3.7186-1.5822-5.6667 1.1768-4.5922 202.25-205.05 205.68-205.05 3.9762 0 7.6738 4.556 6.7196 8.2796-1.1768 4.5923-202.25 205.05-205.68 205.05-1.525 0-3.8368-1.1758-5.1374-2.6129zm83.951-28.186c-9.5246-2.1382-24.667-8.098-24.667-9.7086 0-0.86346 3.8223-5.3582 8.4939-9.9883l8.4939-8.4184 4.2943 2.2206c2.3618 1.2214 8.4491 3.087 13.527 4.1458 37.802 7.8819 72.525-26.842 64.643-64.643-1.0588-5.0782-2.9286-11.174-4.1552-13.545l-2.23-4.3124 11.391-11.391c10.624-10.624 11.612-11.29 14.678-9.8929 9.0474 4.1222 46.197 44.061 46.197 49.666 0 6.97-34.412 42.338-53.645 55.135-23.65 15.736-43.698 22.268-67.688 22.055-7.7-0.0685-16.4-0.66336-19.333-1.3219zm-56.898-28.762c-16.021-12.861-42.436-42.183-42.436-47.106 0-6.1439 31.676-39.697 49.333-52.256 12.225-8.6954 26.889-16.324 39.333-20.462 13.018-4.3286 37.057-5.9343 50.183-3.352 10.933 2.1509 26.484 7.9816 26.484 9.93 0 0.85289-3.8222 5.339-8.4939 9.9691l-8.4939 8.4184-4.2942-2.2206c-2.3618-1.2214-8.4491-3.087-13.527-4.1458-30.51-6.3616-60.289 14.852-65.178 46.431-1.535 9.9146 0.48901 23.633 4.6837 31.745l2.2235 4.2998-11.097 11.155c-6.1034 6.1352-11.814 11.155-12.691 11.155s-3.5898-1.6024-6.0294-3.5608zm71.231-14.713c-1.65-0.31781-3-1.2938-3-2.169 0-2.0394 37.526-39.557 39.566-39.557 2.848 0 3.446 10.129 1.0788 18.272-4.6606 16.032-21.549 26.554-37.645 23.454zm-26.245-27.726c-3.0656-16.341 10.052-34.042 27.579-37.216 6.0724-1.0994 14.333 0.27294 14.333 2.3812 0 1.9822-37.551 39.501-39.535 39.501-0.82587 0-1.8956-2.1-2.3771-4.6667z" fill="#0f0f0f" stroke-width="1.3333"/>
 </g>
</svg>
